<?xml version="1.0" encoding="UTF-8" standalone="no"?>
<svg
   width="203"
   height="100"
   viewBox="0 0 203 100"
   fill="none"
   version="1.1"
   id="svg40"
   sodipodi:docname="age_rating_icon_with_logo.svg"
   inkscape:version="1.2.2 (732a01da63, 2022-12-09)"
   xmlns:inkscape="http://www.inkscape.org/namespaces/inkscape"
   xmlns:sodipodi="http://sodipodi.sourceforge.net/DTD/sodipodi-0.dtd"
   xmlns="http://www.w3.org/2000/svg"
   xmlns:svg="http://www.w3.org/2000/svg">
  <sodipodi:namedview
     id="namedview42"
     pagecolor="#0000a6"
     bordercolor="#000000"
     borderopacity="0.25"
     inkscape:showpageshadow="2"
     inkscape:pageopacity="0"
     inkscape:pagecheckerboard="0"
     inkscape:deskcolor="#d1d1d1"
     showgrid="false"
     inkscape:zoom="5.6568543"
     inkscape:cx="86.885745"
     inkscape:cy="41.365747"
     inkscape:window-width="2560"
     inkscape:window-height="1334"
     inkscape:window-x="-11"
     inkscape:window-y="-11"
     inkscape:window-maximized="1"
     inkscape:current-layer="svg40" />
  <defs
     id="defs38">
    <clipPath
       id="clip0_710_1225">
      <rect
         width="90"
         height="100"
         fill="white"
         id="rect32" />
    </clipPath>
    <clipPath
       id="clip1_710_1225">
      <rect
         width="100"
         height="100"
         fill="white"
         transform="translate(103)"
         id="rect35" />
    </clipPath>
  </defs>
  <g
     id="g684"
     transform="translate(48.45981)">
    <g
       clip-path="url(#clip0_710_1225)"
       id="g10"
       transform="scale(0.52256345)">
      <rect
         width="90"
         height="100"
         rx="3"
         fill="#000000"
         fill-opacity="0.4"
         id="rect2"
         x="0"
         y="0" />
      <path
         d="m 63.4239,21.7214 c 3.57,3.1162 5.3549,7.5543 5.3549,13.1256 0,5.0047 -1.691,11.5203 -6.0125,18.9802 L 51.211,72.0519 H 70.0001 V 84.1001 H 32.5158 V 79.4174 L 50.9291,49.389 c 3.57,-5.7601 5.3549,-10.6704 5.3549,-14.542 0,-4.3437 -2.1607,-6.3267 -6.858,-6.3267 -3.6639,0 -6.5762,2.0774 -8.8309,6.5156 l -0.5637,1.0387 -8.3611,-7.271 0.2818,-0.5666 C 33.3613,25.0264 35.616,22.288 38.7162,20.2106 41.8164,18.0387 45.1984,17 48.9563,17 c 6.1064,0 10.9916,1.6053 14.4676,4.7214 z"
         fill="#ffffff"
         id="path4" />
      <path
         d="M 4.70152,33.0142 C 12.1232,29.0482 18.0418,24.1379 22.2694,18.2833 L 22.4573,18 h 5.5428 V 84.1001 H 15.8811 V 38.7743 L 3.0105,45.8565 V 33.7696 Z"
         fill="#ffffff"
         id="path6" />
      <path
         d="m 79,40 h -4 v 8 h -8 v 4 h 8 v 8 h 4 v -8 h 8 v -4 h -8 z"
         fill="#ffffff"
         id="path8" />
    </g>
    <g
       clip-path="url(#clip1_710_1225)"
       id="g30"
       transform="scale(0.52256345)">
      <rect
         x="103"
         width="100"
         height="100"
         rx="3"
         fill="#000000"
         fill-opacity="0.4"
         id="rect12"
         y="0" />
      <path
         fill-rule="evenodd"
         clip-rule="evenodd"
         d="m 105,63 h 96 v 33 c 0,1.1046 -0.895,2 -2,2 h -92 c -1.105,0 -2,-0.8954 -2,-2 z"
         fill="#ffffff"
         id="path14" />
      <path
         d="m 124.369,13.9786 0.092,-0.4618 c 0.085,-0.4312 0.253,-0.8412 0.494,-1.2063 0.241,-0.3652 0.551,-0.6784 0.912,-0.9217 0.361,-0.2433 0.765,-0.4119 1.19,-0.4962 0.425,-0.0843 0.862,-0.0825 1.287,0.0052 l 35.066,7.204 c 0.856,0.1764 1.607,0.6904 2.09,1.4294 0.483,0.7391 0.656,1.6424 0.483,2.5116 l -0.086,0.4326 z"
         fill="#ffffff"
         id="path16" />
      <path
         fill-rule="evenodd"
         clip-rule="evenodd"
         d="m 122.719,22.2355 -3.016,15.0958 c -0.172,0.8696 0.002,1.7731 0.484,2.5125 0.483,0.7393 1.235,1.2538 2.091,1.4304 l 35.066,7.2021 c 0.424,0.0875 0.861,0.0892 1.286,0.0053 0.424,-0.0841 0.828,-0.2522 1.189,-0.4948 0.361,-0.2426 0.67,-0.555 0.912,-0.9194 0.242,-0.3642 0.41,-0.7734 0.496,-1.2039 l 1.416,-7.092 -0.476,-0.6766 -2.791,-3.2378 -6.649,-2.1665 -5.016,-2.6527 -0.341,-2.7254 z m 26.474,20.1529 1.025,-5.0468 c 0.037,-0.1813 0.144,-0.3405 0.298,-0.4428 0.154,-0.1024 0.342,-0.1394 0.524,-0.1032 l 7.299,1.4803 c 0.09,0.018 0.176,0.0536 0.252,0.1047 0.076,0.0511 0.141,0.1167 0.191,0.1932 0.051,0.0764 0.086,0.162 0.103,0.252 0.017,0.09 0.017,0.1825 -0.002,0.2722 l -1.023,5.0468 c -0.037,0.1813 -0.144,0.3407 -0.298,0.443 -0.154,0.1022 -0.342,0.1394 -0.524,0.1031 l -7.299,-1.4803 c -0.182,-0.037 -0.341,-0.1442 -0.443,-0.2983 -0.102,-0.154 -0.139,-0.3425 -0.103,-0.5239 z"
         fill="#ffffff"
         id="path18" />
      <path
         d="m 163.765,40.3648 -0.634,3.1295 4.157,5.3247 1.911,-0.0884 1.496,-1.6898 -4.142,-2.718 z"
         fill="#ffffff"
         id="path20" />
      <path
         d="m 201,32.5 -8.09,-2.3621 -13.6,-13.914 -14.38,-1.6635 -6.92,0.9344 6.222,1.2613 c 1.1,0.2232 2.067,0.874 2.687,1.8096 0.62,0.9356 0.844,2.0793 0.621,3.1795 l -1.19,5.8706 7.406,2.7093 -0.593,1.6211 -18.524,-6.7761 -5.857,-0.4781 0.531,4.2401 4.09,2.1632 6.966,2.2698 3.161,3.6669 4.245,6.028 8.125,5.3317 13.281,0.0299 11.819,4.1713 z"
         fill="#ffffff"
         id="path22" />
      <path
         d="m 166.103,50.1055 -3.424,-4.3844 -0.184,0.9094 c -0.125,0.669 -0.663,2.1431 -1.811,2.6882 -0.27,0.1793 -0.56,0.3265 -0.863,0.4391 l 3.375,2.8669 3.24,-1.0451 z"
         fill="#ffffff"
         id="path24" />
      <path
         id="path1764"
         d="m 148.84766,67.515625 c -2.11555,0 -3.17383,1.138515 -3.17383,3.414063 v 3.146484 c 0,0.604443 0.0707,1.127823 0.21289,1.572266 0.15111,0.435553 0.35072,0.795634 0.59961,1.080078 0.24889,0.275554 0.5383,0.479948 0.86719,0.613281 0.33777,0.133332 0.68828,0.201172 1.05273,0.201172 0.28444,0 0.53471,-0.03153 0.74805,-0.09375 0.21333,-0.05333 0.39859,-0.133569 0.55859,-0.240235 0.16,-0.115555 0.29851,-0.254062 0.41406,-0.414062 0.12445,-0.168888 0.23621,-0.35415 0.33399,-0.558594 v 1.080078 h 1.42578 V 72.15625 h -3.03906 v 1.425781 h 1.21289 v 0.640625 c 0,0.648886 -0.10698,1.118777 -0.32032,1.41211 -0.20444,0.293332 -0.50625,0.441406 -0.90625,0.441406 -0.47999,0 -0.81811,-0.177649 -1.01367,-0.533203 -0.18666,-0.364443 -0.28125,-0.926088 -0.28125,-1.681641 v -3.052734 c 0,-0.639998 0.0994,-1.102276 0.29492,-1.386719 0.20444,-0.293332 0.54256,-0.439453 1.01368,-0.439453 0.41777,0 0.72436,0.141338 0.91992,0.425781 0.19555,0.275555 0.29297,0.742615 0.29297,1.400391 h 1.82617 v -0.265625 c 0,-0.39111 -0.0535,-0.770322 -0.16016,-1.134766 -0.10666,-0.364443 -0.27953,-0.68343 -0.51953,-0.958984 -0.24,-0.284444 -0.55616,-0.5108 -0.94726,-0.679688 -0.38222,-0.168888 -0.85211,-0.253906 -1.41211,-0.253906 z m -18.06836,0.173828 v 9.626953 h 1.82812 v -9.626953 z m 3.16015,0 v 9.626953 h 1.70703 v -3.414062 c 0,-0.239999 -0.005,-0.515062 -0.0137,-0.826172 0,-0.319999 -0.008,-0.645722 -0.0254,-0.97461 -0.0178,-0.328887 -0.0417,-0.647874 -0.0684,-0.958984 -0.0267,-0.31111 -0.0658,-0.583343 -0.11914,-0.814453 h 0.0137 l 2.66602,6.988281 h 1.97461 v -9.626953 h -1.70703 v 3.412109 0.88086 c 0.009,0.302221 0.0213,0.608811 0.0391,0.919922 0.0178,0.311109 0.0397,0.622483 0.0664,0.933594 0.0267,0.302221 0.0678,0.586849 0.12109,0.853515 h -0.0137 l -2.66602,-7 z m 21.05469,0 -2.44141,9.626953 h 1.96094 l 0.57227,-2.507812 h 2.0664 l 0.45508,2.507812 h 1.97266 l -2.13281,-9.626953 z m 5.3457,0 v 9.626953 h 1.70704 v -8.707031 h 0.0137 l 1.82617,8.707031 h 1.30664 l 1.82617,-8.720703 h 0.0137 v 8.720703 h 1.70703 v -9.626953 h -2.91992 l -1.28125,6.251953 -1.27929,-6.251953 z m 9.73438,0 v 9.626953 h 5.14648 v -1.466797 h -3.32031 v -2.986328 h 3.02539 v -1.466797 h -3.02539 V 69.15625 h 3.32031 v -1.466797 z m -13.88086,1.212891 0.73242,4.480468 h -1.61328 z m -14.98633,4.414062 v 1.171875 h 3.40039 v -1.171875 z m 8.91211,9.365235 c -0.99555,0 -1.74529,0.267449 -2.25195,0.800781 -0.49778,0.533331 -0.74805,1.368085 -0.74805,2.505859 v 3.507813 c 0,0.426665 0.0411,0.835453 0.12109,1.226562 0.0889,0.382221 0.24458,0.72317 0.4668,1.025391 0.22223,0.293332 0.52403,0.529254 0.90625,0.707031 0.38222,0.168889 0.87603,0.253906 1.48047,0.253906 0.56889,0 1.03878,-0.08502 1.41211,-0.253906 0.37333,-0.177777 0.67231,-0.413699 0.89453,-0.707031 0.22223,-0.302221 0.37791,-0.647953 0.4668,-1.039063 C 152.95607,90.317875 153,89.904304 153,89.46875 v -0.414062 h -1.82617 v 0.521484 c 0,0.62222 -0.0898,1.057752 -0.26758,1.30664 -0.17778,0.24 -0.45284,0.359376 -0.82617,0.359376 -0.39111,0 -0.67095,-0.119376 -0.83985,-0.359376 -0.16888,-0.239999 -0.2539,-0.675531 -0.2539,-1.30664 v -3.800781 c 0,-0.604442 0.085,-1.025626 0.2539,-1.265625 0.17778,-0.239999 0.46241,-0.361328 0.85352,-0.361328 0.38223,-10e-7 0.65729,0.121329 0.82617,0.361328 0.16889,0.239999 0.25391,0.661183 0.25391,1.265625 v 0.21289 H 153 v -0.478515 c 0,-0.888886 -0.24354,-1.582302 -0.73242,-2.080078 -0.48889,-0.497777 -1.20622,-0.748047 -2.14844,-0.748047 z m 21.49414,0 c -0.41777,0 -0.79982,0.05827 -1.14648,0.173828 -0.34667,0.106666 -0.64847,0.267136 -0.90625,0.480469 -0.24889,0.213332 -0.44567,0.475999 -0.58789,0.787109 -0.13334,0.302221 -0.19922,0.652736 -0.19922,1.052734 0,1.031108 0.47946,1.858249 1.43945,2.480469 l 1.62695,1.066406 c 0.33778,0.222222 0.5861,0.439012 0.7461,0.652344 0.16888,0.213332 0.2539,0.476 0.2539,0.787109 0,0.302222 -0.0926,0.560105 -0.27929,0.773438 -0.18666,0.204444 -0.45412,0.306641 -0.80078,0.306641 -0.17778,0 -0.34586,-0.02196 -0.50586,-0.06641 -0.16,-0.05333 -0.3033,-0.143134 -0.42774,-0.267578 -0.11556,-0.133332 -0.21297,-0.306199 -0.29297,-0.519531 -0.0711,-0.222222 -0.10742,-0.502068 -0.10742,-0.839844 v -0.373047 h -1.74609 v 0.373047 c 0,0.995552 0.25788,1.773986 0.77343,2.333984 0.51556,0.55111 1.28443,0.826172 2.30665,0.826172 0.96888,0 1.70144,-0.235921 2.19921,-0.707031 0.50667,-0.479998 0.76172,-1.146669 0.76172,-2 0,-0.355554 -0.0411,-0.666928 -0.12109,-0.933594 -0.0711,-0.266665 -0.17809,-0.502587 -0.32031,-0.707031 -0.14222,-0.204444 -0.31509,-0.389705 -0.51953,-0.558594 -0.20444,-0.168887 -0.4308,-0.338924 -0.67969,-0.507812 l -1.86719,-1.240234 c -0.19555,-0.124444 -0.34646,-0.265783 -0.45312,-0.425782 -0.10667,-0.16 -0.16016,-0.381572 -0.16016,-0.666015 0,-0.266666 0.0974,-0.46823 0.29297,-0.601563 0.19555,-0.142222 0.42386,-0.21289 0.68164,-0.21289 0.36445,0 0.64429,0.128941 0.83984,0.386718 0.20444,0.248888 0.30664,0.667242 0.30664,1.253906 v 0.107422 h 1.7461 v -0.294922 c 0,-0.968885 -0.24832,-1.69666 -0.7461,-2.185546 -0.48888,-0.488888 -1.19187,-0.734375 -2.10742,-0.734375 z m -46.58594,0.173828 v 9.626953 h 1.82618 V 88.5625 h 1.5996 c 0.39112,0 0.74163,-0.07545 1.05274,-0.226562 0.32,-0.151111 0.59223,-0.355505 0.81445,-0.613282 0.22222,-0.266665 0.3903,-0.573256 0.50586,-0.919922 0.12444,-0.355554 0.1875,-0.734766 0.1875,-1.134765 0,-0.382221 -0.0583,-0.740348 -0.17383,-1.078125 -0.11555,-0.346665 -0.28364,-0.650426 -0.50586,-0.908203 -0.22222,-0.257777 -0.48967,-0.457388 -0.80078,-0.59961 -0.31111,-0.15111 -0.66162,-0.226562 -1.05273,-0.226562 z m 7.25196,0 v 7.041015 c 0,0.888886 0.24071,1.572736 0.7207,2.052735 0.48889,0.471109 1.26733,0.707031 2.33398,0.707031 1.06667,0 1.84032,-0.240705 2.32032,-0.720703 0.47999,-0.488887 0.71875,-1.167954 0.71875,-2.039063 v -7.041015 h -1.82617 v 6.773437 c 0,0.542221 -0.0898,0.938612 -0.26758,1.1875 -0.17778,0.248889 -0.49198,0.373047 -0.94532,0.373047 -0.43555,0 -0.75171,-0.124158 -0.94726,-0.373047 -0.18667,-0.257777 -0.2793,-0.654168 -0.2793,-1.1875 v -6.773437 z m 7.42773,0 v 9.626953 h 1.82617 v -4.080078 h 1.33399 c 0.21333,0 0.3862,0.03914 0.51953,0.11914 0.14223,0.07111 0.25398,0.173308 0.33398,0.306641 0.0889,0.124445 0.15002,0.272518 0.18555,0.441406 0.0355,0.168889 0.0547,0.346538 0.0547,0.533203 v 1.105469 c 0,0.31111 0.0248,0.614871 0.0781,0.908203 0.0622,0.293333 0.18356,0.514905 0.36133,0.666016 h 1.82617 v -0.292969 c -0.10669,0 -0.1917,-0.04109 -0.2539,-0.121094 -0.0534,-0.08889 -0.0973,-0.203482 -0.13282,-0.345703 -0.0267,-0.151111 -0.0439,-0.323977 -0.0527,-0.519531 v -0.626953 -1.226563 c 0,-0.168888 -0.0219,-0.343707 -0.0664,-0.521484 -0.0356,-0.186666 -0.10339,-0.359532 -0.20117,-0.519531 -0.0978,-0.16 -0.2315,-0.296555 -0.40039,-0.41211 -0.16889,-0.124444 -0.38568,-0.214244 -0.65234,-0.267578 0.42666,-0.06222 0.77239,-0.276182 1.03906,-0.640625 0.27555,-0.373331 0.41406,-0.918674 0.41406,-1.638672 0,-0.346665 -0.0583,-0.672387 -0.17383,-0.974609 -0.10666,-0.302221 -0.26518,-0.562935 -0.47851,-0.785156 -0.20445,-0.231111 -0.4595,-0.410713 -0.76172,-0.535156 -0.29333,-0.133334 -0.62667,-0.199219 -1,-0.199219 z m 14.56055,0 v 9.626953 h 1.82617 v -4.453125 h 2.41211 v 4.453125 h 1.82812 v -9.626953 h -1.82812 V 86.5625 h -2.41211 v -3.707031 z m 9.23828,0 -2.43945,9.626953 h 1.96093 l 0.57227,-2.50586 h 2.06641 l 0.45312,2.50586 h 1.97461 l -2.13281,-9.626953 z m 12.32031,0 v 9.626953 h 5.14649 v -1.466797 h -3.32032 v -2.986328 h 3.02735 V 86.5625 h -3.02735 v -2.240234 h 3.32032 v -1.466797 z m -11.11914,1.21289 0.73242,4.480469 h -1.61328 z m -37.85351,0.214844 h 0.91992 c 0.46222,0 0.80511,0.124159 1.02734,0.373047 0.23111,0.239999 0.3457,0.585731 0.3457,1.039062 0,0.462221 -0.11459,0.817519 -0.3457,1.066407 -0.22223,0.248888 -0.56512,0.373047 -1.02734,0.373047 h -0.91992 z m 14.67968,0 h 1.1875 c 0.40889,0 0.73266,0.09263 0.97266,0.279297 0.24,0.177777 0.35937,0.528292 0.35937,1.052734 0,0.275555 -0.0391,0.506694 -0.11914,0.69336 -0.0711,0.177777 -0.16853,0.321068 -0.29297,0.427734 -0.11555,0.106665 -0.25406,0.182116 -0.41406,0.226563 -0.1511,0.04445 -0.30679,0.06641 -0.46679,0.06641 h -1.22657 z"
         style="font-size:13.3333px;font-family:'Source Han Sans CN Bold WH';-inkscape-font-specification:'Source Han Sans CN Bold WH';text-align:center;text-anchor:middle;fill:#111d40" />
    </g>
    <path
       id="path1368"
       style="font-weight:bold;font-size:4.9389px;font-family:'JetBrains Mono';-inkscape-font-specification:'JetBrains Mono Bold';text-align:center;text-anchor:middle;fill:#ffffff;stroke-width:0.858035"
       d="M 0,57.956231 V 100 H 106.07472 V 57.956231 Z m 56.137684,3.700279 c 0.405757,0 0.727031,0.108218 0.961937,0.321767 0.23492,0.202882 0.351932,0.478859 0.351932,0.831223 0,0.352369 -0.117003,0.636102 -0.351932,0.849658 -0.234914,0.202881 -0.55618,0.305003 -0.961937,0.305003 -0.405756,0 -0.725349,-0.102119 -0.960262,-0.305003 C 54.9425,63.445607 54.82549,63.161866 54.82549,62.8095 c 0,-0.352367 0.11701,-0.628345 0.351932,-0.831223 0.234921,-0.213549 0.554506,-0.321767 0.960262,-0.321767 z m 40.847215,0.246368 h 5.233691 c 0.72924,0 1.32529,0.59636 1.32726,1.325597 v 5.870511 c 0,0.729242 -0.59468,1.323924 -1.32392,1.323924 h -2.334461 c -0.129777,0 -0.236275,-0.104458 -0.236275,-0.236283 v -2.257375 c 0.580916,0.416122 1.233956,0.752141 1.959076,1.005514 0.22865,0.07005 0.38296,0.0072 0.45918,-0.18433 0.0597,-0.247213 -0.008,-0.404221 -0.20783,-0.474269 -0.70657,-0.28016 -1.2902,-0.603254 -1.74957,-0.971992 0.56856,-0.718946 0.96054,-1.618821 1.17476,-2.7065 0,-0.01882 0.0305,-0.02691 0.0922,-0.02691 h 0.45918 c 0.19776,-0.01848 0.29999,-0.140029 0.29999,-0.368689 -0.0142,-0.228695 -0.12194,-0.349879 -0.32178,-0.368688 h -1.841763 c -0.01662,-0.07005 -0.04688,-0.183227 -0.09224,-0.341873 -0.0619,-0.210113 -0.108292,-0.369225 -0.139101,-0.474266 -0.09064,-0.158646 -0.235894,-0.212738 -0.435713,-0.159197 -0.168978,0.07008 -0.238619,0.202264 -0.207809,0.393828 0.01422,0.158611 0.0612,0.353261 0.137388,0.579841 H 97.0284 c -0.15453,0.01848 -0.238782,0.142108 -0.25305,0.36869 0.01461,0.228662 0.09856,0.352148 0.25305,0.368688 h 0.712247 c 0.04528,0.201875 0.09818,0.39666 0.155852,0.588223 -0.187471,-0.04952 -0.381688,-0.07376 -0.581531,-0.07376 h -1.417793 c -0.129782,0 -0.236281,-0.10446 -0.236281,-0.236282 v -1.62055 c 0,-0.729246 0.594679,-1.323923 1.323931,-1.323923 z M 4.6454618,62.554767 h 2.0009651 v 9.833899 h 4.9655481 v 1.856843 H 4.6454618 Z m 37.2223442,0 h 4.900192 v 8.840119 c 0,0.309672 0.09164,0.560257 0.273157,0.752459 0.192209,0.19221 0.44888,0.288234 0.769212,0.288234 h 2.577462 v 1.809922 h -2.721587 c -0.875574,0 -1.581034,-0.261092 -2.114922,-0.7843 -0.523204,-0.523201 -0.784287,-1.21209 -0.784287,-2.066315 v -7.030197 h -2.899227 z m 44.381583,0 h 2.002648 v 11.690742 h -1.954048 v -1.680878 h -0.03175 c -0.08538,0.587279 -0.336015,1.040458 -0.752455,1.360791 -0.405755,0.320342 -0.935685,0.480968 -1.58703,0.480968 -0.886249,0 -1.596118,-0.298612 -2.130005,-0.89658 -0.533884,-0.608628 -0.801059,-1.431104 -0.801059,-2.466854 v -2.386411 c 0,-1.035748 0.267158,-1.858219 0.801063,-2.466853 0.533887,-0.60864 1.243756,-0.913342 2.130005,-0.913342 0.651345,0 1.181275,0.166722 1.58703,0.497727 0.405757,0.320343 0.656357,0.767433 0.752455,1.344034 h 0.04694 l -0.06367,-2.098166 z m 12.352697,2.014375 h 1.828354 c 0.0721,0 0.12717,0.06829 0.11063,0.142465 -0.14833,0.6798 -0.42281,1.328048 -0.824523,1.943985 -0.133902,-0.01687 -0.07562,-0.01035 -0.209502,-0.02691 -0.135976,-0.374922 -0.367365,-0.706088 -0.661963,-0.963613 -0.01232,-0.01233 -0.02233,-0.02595 -0.02854,-0.04023 -0.133893,-0.292516 -0.242335,-0.596478 -0.326789,-0.911663 -0.01843,-0.07213 0.03605,-0.144118 0.112278,-0.144118 z M 27.068354,65.27635 c 1.110499,0 1.995879,0.288137 2.657906,0.864742 0.662017,0.565924 1.010346,1.340372 1.042377,2.32273 h -2.00264 c -0.03209,-0.459147 -0.197075,-0.811871 -0.496055,-1.057461 -0.298968,-0.256262 -0.69973,-0.383772 -1.201588,-0.383772 -0.533876,0 -0.955603,0.150149 -1.265267,0.449131 -0.309666,0.288299 -0.464207,0.703937 -0.464207,1.248506 v 2.22721 c 0,0.544566 0.154558,0.966287 0.464207,1.265266 0.309672,0.298969 0.731391,0.447453 1.265267,0.447453 0.512541,0 0.913288,-0.123104 1.201588,-0.368688 0.298973,-0.256258 0.464026,-0.613404 0.496055,-1.072545 h 2.00264 c -0.03208,0.982355 -0.380367,1.761211 -1.042377,2.337814 -0.662027,0.565921 -1.547407,0.849654 -2.657906,0.849654 -0.747434,0 -1.40487,-0.137988 -1.970797,-0.415609 -0.555243,-0.2883 -0.987453,-0.689054 -1.29711,-1.201585 -0.309674,-0.523214 -0.464214,-1.137027 -0.464214,-1.84176 v -2.210449 c 0,-0.704737 0.154565,-1.31415 0.464214,-1.826679 0.309674,-0.523214 0.741867,-0.923967 1.29711,-1.201586 0.565927,-0.2883 1.223363,-0.432372 1.970797,-0.432372 z m 9.67302,0 c 1.067783,0 1.917307,0.273253 2.547295,0.817816 0.629995,0.53389 0.945179,1.260317 0.945179,2.17861 v 5.972733 h -1.937282 v -1.536756 h -0.03355 c -0.106792,0.523213 -0.394921,0.938853 -0.864737,1.248514 -0.459145,0.298968 -1.039829,0.449123 -1.744569,0.449123 -0.907606,0 -1.62355,-0.234043 -2.146762,-0.703857 -0.523215,-0.4805 -0.784298,-1.131851 -0.784298,-1.954041 0,-0.864901 0.288137,-1.532821 0.864737,-2.002642 0.587283,-0.469828 1.403679,-0.705535 2.450096,-0.705535 h 2.193691 v -0.752457 c 0,-0.427112 -0.13799,-0.757191 -0.415608,-0.992105 -0.277635,-0.245592 -0.65741,-0.368689 -1.137909,-0.368689 -0.437789,0 -0.801003,0.09605 -1.089304,0.288236 -0.2883,0.192211 -0.459418,0.453288 -0.512804,0.784296 H 33.12149 c 0.09609,-0.832862 0.471483,-1.494709 1.122825,-1.985881 0.651345,-0.491181 1.482629,-0.737377 2.497015,-0.737377 z m 38.345163,0 c 0.736771,0 1.377637,0.144054 1.922209,0.432372 0.555241,0.2883 0.981369,0.695132 1.280352,1.218342 0.309666,0.512536 0.464206,1.115865 0.464206,1.809923 v 1.585355 h -5.429755 v 0.625094 c 0,1.249296 0.592842,1.873599 1.778074,1.873599 0.918287,0 1.458703,-0.304708 1.618873,-0.913336 h 1.969124 c -0.149461,0.758121 -0.554634,1.367531 -1.21666,1.826677 -0.651353,0.448464 -1.446769,0.672014 -2.386423,0.672014 -0.747435,0 -1.398796,-0.144083 -1.954039,-0.432368 -0.555243,-0.288301 -0.987454,-0.689051 -1.297111,-1.201586 -0.298965,-0.523211 -0.449122,-1.130943 -0.449122,-1.825 v -2.210449 c 0,-0.694058 0.150148,-1.297387 0.449122,-1.809923 0.309674,-0.52321 0.741868,-0.930048 1.297111,-1.218342 0.555243,-0.2883 1.206604,-0.432372 1.954039,-0.432372 z m -57.781689,0.01686 c 0.03493,-6.17e-4 0.07019,0 0.105591,0 1.131843,0 2.02771,0.315184 2.689737,0.945179 0.662025,0.619314 0.993785,1.452272 0.993785,2.498698 v 2.193688 c 0,1.057102 -0.33176,1.900546 -0.993785,2.530536 -0.662027,0.619314 -1.557894,0.928423 -2.689737,0.928423 -1.131845,0 -2.029402,-0.30912 -2.691419,-0.928423 -0.662028,-0.62999 -0.992105,-1.473434 -0.992105,-2.530536 v -2.178603 c 0,-1.0571 0.330077,-1.894465 0.992105,-2.513778 0.641329,-0.610303 1.503587,-0.926109 2.585836,-0.945179 z m 35.35712,0.144117 h 4.596862 v 6.983276 h 2.72326 v 1.825 h -7.718971 v -1.825097 h 3.075185 v -5.173355 h -2.676336 z m 9.386446,0 h 6.790548 v 1.809918 l -4.643778,5.23704 h 4.821425 v 1.761318 h -7.112321 v -1.809917 l 4.59687,-5.237036 h -4.452744 z m 30.168685,0.363659 h 5.707945 c 0.599459,0 1.087645,0.488168 1.087645,1.08763 v 6.343098 c 0,0.597394 -0.490239,1.087628 -1.087645,1.087628 h -5.707945 c -0.597399,0 -1.087629,-0.490234 -1.087629,-1.087628 v -6.343093 c 0,-0.597401 0.49023,-1.08763 1.087629,-1.087631 z m -17.130562,1.02888 c -0.587273,0 -1.029968,0.166722 -1.328943,0.497729 -0.288301,0.331009 -0.434045,0.800756 -0.434045,1.409391 v 0.335169 l 3.492473,-0.01524 v -0.336843 c 0,-0.608634 -0.144057,-1.072299 -0.432375,-1.392632 -0.288298,-0.331016 -0.72051,-0.49773 -1.29711,-0.49773 z m 9.545661,0.177647 c -0.512538,0 -0.913284,0.148462 -1.201594,0.447451 -0.2883,0.298972 -0.432364,0.72678 -0.432364,1.282029 v 2.210448 c 0,0.555245 0.144055,0.981372 0.432364,1.280351 0.288301,0.29897 0.689056,0.449128 1.201594,0.449128 0.512531,0 0.9072,-0.150149 1.184818,-0.449128 0.2883,-0.309672 0.432373,-0.735785 0.432373,-1.280351 v -2.210448 c 0,-0.54457 -0.144048,-0.966294 -0.432373,-1.265268 -0.277626,-0.309671 -0.672287,-0.464212 -1.184818,-0.464212 z m -67.221768,0.03178 c -0.533897,0 -0.951211,0.148464 -1.250193,0.447453 -0.2883,0.2883 -0.432365,0.710021 -0.432365,1.265272 v 2.178604 c 0,0.555246 0.144082,0.983049 0.432365,1.282029 0.298973,0.2883 0.716296,0.432368 1.250193,0.432368 0.533878,0 0.945117,-0.144084 1.233417,-0.432368 0.298974,-0.298971 0.447458,-0.726783 0.447458,-1.282029 v -2.178604 c 0,-0.555251 -0.148467,-0.976972 -0.447458,-1.265272 -0.2883,-0.298972 -0.699539,-0.447456 -1.233417,-0.447456 z m 77.667344,0.108932 c -0.269876,0 -0.466417,0.134777 -0.571463,0.40053 l -1.635625,5.002416 c -0.07803,0.160688 -0.04723,0.274678 -0.01002,0.338523 0.03297,0.06178 0.106265,0.144022 0.246333,0.170938 0.09479,0.0227 0.19104,0.0072 0.289924,-0.04022 0.0968,-0.04743 0.166234,-0.118434 0.209496,-0.21115 l 0.499403,-1.523351 c 0.01845,-0.05562 0.06924,-0.09216 0.12904,-0.09216 h 1.633957 c 0.08027,0 0.152995,0.05283 0.177644,0.129037 l 0.479297,1.488157 c 0.01657,0.07621 0.06352,0.17191 0.199436,0.229603 0.05359,0.0227 0.109488,0.03354 0.169251,0.03354 0.03297,0 0.06885,-0.002 0.103914,-0.01002 0.09887,-0.02076 0.181551,-0.07033 0.241311,-0.142466 0.07021,-0.08448 0.08769,-0.192988 0.04861,-0.308339 l -1.628932,-5.064426 -0.0066,-0.0133 c -0.11332,-0.247262 -0.310263,-0.381012 -0.569797,-0.387174 z m 0,1.431178 c 0.04788,2.26e-4 0.09644,0.02757 0.113967,0.08211 l 0.551351,1.702669 c 0.02464,0.07828 -0.03364,0.155857 -0.113958,0.155857 h -1.107741 c -0.08244,0 -0.139186,-0.07757 -0.11227,-0.155857 l 0.554703,-1.702669 c 0.01752,-0.05539 0.06604,-0.08236 0.113958,-0.08211 z M 36.06936,70.273687 c -0.405757,0 -0.731433,0.117007 -0.977019,0.351929 -0.245596,0.23492 -0.36869,0.545696 -0.36869,0.930097 0,0.416432 0.139669,0.746515 0.417288,0.992105 0.288301,0.234922 0.676889,0.353604 1.168071,0.353604 0.565918,0 1.025181,-0.144053 1.377542,-0.432368 0.363054,-0.288301 0.544656,-0.662002 0.544656,-1.121147 v -1.07422 z m 54.646176,5.979439 h 1.565246 c 0.306716,0 0.55806,0.251332 0.55806,0.558058 v 7.130749 c 0,0.306689 -0.251307,0.558061 -0.55806,0.558061 h -1.565246 c -0.306749,0 -0.558059,-0.251362 -0.558059,-0.558061 v -7.130749 c 0,-0.306686 0.251293,-0.558058 0.558059,-0.558058 z m 4.5801,0 h 1.56525 c 0.306752,0 0.558058,0.251332 0.558058,0.558058 v 7.130749 c 0,0.306689 -0.251296,0.558061 -0.558058,0.558061 h -1.56525 c -0.306721,0 -0.558058,-0.251362 -0.558058,-0.558061 v -7.130749 c 0,-0.306686 0.251299,-0.558058 0.558058,-0.558058 z m -29.218479,6.611237 c 0.405758,0 0.725358,0.106532 0.960264,0.320079 0.234921,0.202882 0.353613,0.480535 0.353613,0.8329 0,0.352366 -0.118692,0.636098 -0.353613,0.849655 -0.234914,0.20288 -0.554506,0.303316 -0.960264,0.303316 -0.405747,0 -0.725348,-0.100437 -0.960253,-0.303316 -0.234922,-0.21355 -0.353613,-0.497292 -0.353613,-0.849655 0,-0.352368 0.118691,-0.630022 0.353613,-0.8329 0.234921,-0.213547 0.554506,-0.320079 0.960253,-0.320079 z m 10.38694,0.638498 h 11.16787 c 0.306689,0 0.556386,0.25133 0.556386,0.55806 v 0.588224 c 0,0.306752 0.251327,0.558057 0.558058,0.558057 h 10.616524 v 2.379711 c 0,0.306722 -0.251299,0.558058 -0.558067,0.558058 H 76.464097 c -0.306723,0 -0.558066,-0.251299 -0.558066,-0.558058 v -3.525992 c 0,-0.306687 0.251301,-0.55806 0.558066,-0.55806 z M 4.5415571,83.760939 h 2.0009683 v 4.725901 h 1.3943097 l 2.1936889,-4.725901 h 2.178605 l -2.6109776,5.605723 2.7383446,6.086698 h -2.22553 L 7.9049915,90.311845 H 6.5425254 V 95.45336 H 4.5415571 Z m 38.4557759,0 h 2.002639 v 2.466853 l -0.06537,2.098168 h 0.04865 c 0.09609,-0.576604 0.346707,-1.025376 0.752456,-1.34571 0.405757,-0.331014 0.934015,-0.496052 1.585358,-0.496052 0.886258,0 1.59612,0.30471 2.130007,0.913338 0.533887,0.608634 0.801063,1.429433 0.801063,2.465179 v 2.388097 c 0,1.03574 -0.267193,1.856538 -0.801063,2.46517 -0.533887,0.597955 -1.243749,0.89826 -2.130007,0.89826 -0.651343,0 -1.184004,-0.160626 -1.600442,-0.480974 -0.405748,-0.320338 -0.651945,-0.775183 -0.737372,-1.362465 h -0.03173 v 1.682557 h -1.954039 z m 8.808273,0 h 4.901865 v 8.841795 c 0,0.309672 0.08996,0.560261 0.271501,0.75246 0.192217,0.192175 0.448889,0.288233 0.76922,0.288233 h 2.579137 v 1.809923 h -2.72326 c -0.875584,0 -1.579362,-0.261091 -2.113249,-0.784295 -0.523212,-0.523214 -0.785978,-1.212106 -0.785978,-2.06633 V 85.570849 H 51.805624 Z M 78.46841,84.78153 c -0.536772,0 -0.973665,0.443082 -0.973665,0.993784 0,0.550709 0.436893,0.99713 0.973665,0.99713 0.53677,0 0.968748,-0.446421 0.971992,-0.99713 0,-0.547209 -0.435222,-0.993784 -0.971992,-0.993784 z m 3.606438,0.04523 c -0.536771,0 -0.972001,0.446432 -0.972001,0.997135 0,0.547207 0.43523,0.993777 0.972001,0.993777 0.53677,0 0.973664,-0.443077 0.973664,-0.993777 0,-0.550703 -0.436894,-0.997135 -0.973664,-0.997135 z m 3.417057,0.02173 c -0.53677,0 -0.973671,0.446546 -0.973671,0.993783 0,0.547246 0.436901,0.992104 0.973671,0.992104 0.536761,0 0.971993,-0.444883 0.971993,-0.992104 0,-0.547217 -0.435232,-0.993783 -0.971993,-0.993783 z M 28.37385,86.484129 c 0.950317,0 1.697727,0.294203 2.242288,0.881499 0.544569,0.587275 0.816137,1.397588 0.816137,2.433337 v 0.641859 h -2.098164 v -0.497727 c 0,-0.56592 -0.148466,-1.002537 -0.447449,-1.312193 -0.2883,-0.309638 -0.689061,-0.465888 -1.201583,-0.465888 -0.51254,0 -0.913286,0.156246 -1.201586,0.465888 -0.2883,0.309672 -0.432375,0.746273 -0.432375,1.312193 v 5.510199 h -2.002647 v -8.809952 h 1.890365 V 88.3259 h 0.01682 c 0.277635,-1.227947 1.083528,-1.841761 2.418255,-1.841761 z m 8.697672,0 c 1.067774,0 1.915625,0.271567 2.54562,0.816139 0.62998,0.53389 0.945178,1.260317 0.945178,2.17861 v 5.974409 h -1.937289 v -1.53843 h -0.03175 c -0.106791,0.523215 -0.396594,0.940529 -0.866411,1.250185 -0.459142,0.298974 -1.039826,0.449131 -1.744567,0.449131 -0.907613,0 -1.623549,-0.235703 -2.146764,-0.705538 -0.523212,-0.480501 -0.784296,-1.131853 -0.784296,-1.954039 0,-0.8649 0.288138,-1.532823 0.864737,-2.002641 0.587283,-0.469824 1.403672,-0.70386 2.450097,-0.70386 h 2.19369 v -0.752457 c 0,-0.427113 -0.13799,-0.758868 -0.415607,-0.993781 -0.277635,-0.245589 -0.657411,-0.368687 -1.137909,-0.368687 -0.437789,0 -0.801003,0.09606 -1.089303,0.288234 -0.288301,0.192213 -0.457747,0.454964 -0.511134,0.785978 H 33.45177 c 0.09608,-0.83287 0.4698,-1.496382 1.121144,-1.987563 0.651343,-0.491173 1.484299,-0.735696 2.498696,-0.735696 z m -19.332628,0.01524 c 1.131845,0 2.029393,0.315185 2.691419,0.945181 0.662018,0.61931 0.992097,1.452269 0.992097,2.498694 v 2.195368 c 0,1.057097 -0.330079,1.900548 -0.992097,2.530535 -0.662026,0.619312 -1.559574,0.928421 -2.691419,0.928421 -1.131844,0 -2.029393,-0.309117 -2.691419,-0.928421 -0.662026,-0.629985 -0.992105,-1.473436 -0.992105,-2.530533 v -2.17861 c 0,-1.057104 0.330079,-1.896142 0.992105,-2.515452 0.662026,-0.629989 1.559575,-0.945181 2.691419,-0.945181 z m 44.862548,0.144118 h 4.596868 v 6.983275 h 2.723254 v 1.826647 h -7.720645 v -1.826682 h 3.075185 v -5.173354 h -2.674662 z m -15.984269,1.570276 c -0.512541,0 -0.913286,0.15456 -1.201585,0.464208 -0.277636,0.29897 -0.415616,0.720706 -0.415616,1.26527 v 2.210455 c 0,0.54456 0.137989,0.972366 0.415616,1.282024 0.288299,0.298965 0.689044,0.447448 1.201585,0.447448 0.51253,0 0.913285,-0.148466 1.201586,-0.447448 0.288299,-0.298974 0.432363,-0.726781 0.432363,-1.282024 v -2.210455 c 0,-0.555242 -0.144046,-0.981374 -0.432363,-1.280352 -0.288301,-0.298971 -0.689056,-0.449126 -1.201586,-0.449126 z m -28.878279,0.03178 c -0.533887,0 -0.951209,0.15015 -1.250183,0.449129 -0.288302,0.288299 -0.432374,0.710021 -0.432374,1.265266 v 2.178611 c 0,0.555244 0.144081,0.981369 0.432374,1.28035 0.298965,0.2883 0.716296,0.432374 1.250183,0.432374 0.533887,0 0.945127,-0.144091 1.233427,-0.432374 0.298966,-0.298964 0.447449,-0.725106 0.447449,-1.28035 V 89.95994 c 0,-0.555245 -0.148466,-0.976964 -0.447449,-1.265266 -0.2883,-0.298972 -0.69954,-0.449131 -1.233427,-0.449131 z m 55.393604,0.94518 h 30.110032 c 0.30674,0 0.4044,0.195064 0.21617,0.43907 l -4.176223,5.374465 c -0.188248,0.2405 -0.59152,0.439066 -0.898247,0.439066 H 75.766935 c -0.306723,0 -0.655712,-0.228787 -0.774249,-0.511132 l -2.202065,-5.228663 c -0.118502,-0.282268 0.03517,-0.512811 0.341868,-0.512811 z m 25.258433,2.133357 c -0.536754,0 -0.971987,0.443111 -0.971987,0.99378 0,0.550679 0.435233,0.99713 0.971987,0.99713 0.536732,0 0.972004,-0.446451 0.972004,-0.99713 0,-0.547234 -0.435272,-0.99378 -0.972004,-0.99378 z m -61.993106,0.157546 c -0.405757,0 -0.731433,0.117004 -0.977019,0.35193 -0.245587,0.234926 -0.368691,0.544026 -0.368691,0.928423 0,0.416429 0.139681,0.74819 0.417289,0.993776 0.2883,0.234922 0.67857,0.351932 1.169743,0.351932 0.565927,0 1.02351,-0.144089 1.375879,-0.432373 0.363044,-0.2883 0.544647,-0.661999 0.544647,-1.121142 v -1.072546 z" />
  </g>
</svg>
