<?xml version="1.0" encoding="UTF-8" standalone="no"?>
<svg
   width="440"
   height="77"
   viewBox="0 0 440 77"
   fill="none"
   version="1.1"
   id="svg26"
   sodipodi:docname="game_logo_static.svg"
   inkscape:version="1.4 (86a8ad7, 2024-10-11)"
   xmlns:inkscape="http://www.inkscape.org/namespaces/inkscape"
   xmlns:sodipodi="http://sodipodi.sourceforge.net/DTD/sodipodi-0.dtd"
   xmlns="http://www.w3.org/2000/svg"
   xmlns:svg="http://www.w3.org/2000/svg">
  <defs
     id="defs30" />
  <sodipodi:namedview
     id="namedview28"
     pagecolor="#00ffff"
     bordercolor="#000000"
     borderopacity="0.25"
     inkscape:showpageshadow="2"
     inkscape:pageopacity="0"
     inkscape:pagecheckerboard="0"
     inkscape:deskcolor="#d1d1d1"
     showgrid="false"
     inkscape:zoom="1"
     inkscape:cx="540.5"
     inkscape:cy="-53.5"
     inkscape:window-width="1920"
     inkscape:window-height="1009"
     inkscape:window-x="-8"
     inkscape:window-y="-8"
     inkscape:window-maximized="1"
     inkscape:current-layer="svg26" />
  <path
     id="path138"
     d="M 191.72439,0.00897373 V 8.3680867 l 3.32804,2.4199483 V 3.3370175 h 1.37037 V 0.00897373 Z m 6.06879,0 V 3.3370175 h 0.97883 v 1.3703732 h -2.34921 v 8.3239423 l 2.34921,1.670137 v 1.986733 l -3.71957,-2.709387 v -1.711054 l -3.32805,-2.4333312 v 5.8064932 l 8.61377,6.294002 8.61376,-6.294002 V 9.8363432 l -3.32805,2.4337138 v 1.710671 l -3.71957,2.705569 V 14.70147 l 2.34921,-1.670137 V 4.7073907 H 201.9043 V 3.3370175 h 0.97884 V 0.00897373 Z m 6.46033,0 V 3.3370175 h 1.37036 V 10.64312 l 3.32805,-2.3748292 V 0.00897373 Z m -3.91344,6.11964127 0.79875,2.0242075 2.13738,0.1445313 -1.6342,1.3650182 0.50701,2.100296 -1.81277,-1.147074 -1.80893,1.147074 0.50892,-2.1022084 -1.6384,-1.3703743 2.1454,-0.1449082 z"
     style="fill:#ffffff;fill-opacity:1;stroke-width:0.195768" />
  <path
     d="m 235.33127,1.5740591 -2.57181,8.279516 h -0.26391 v -8.279516 h -3.36356 V 18.13309 h 3.32216 l 2.62874,-8.5382492 h 0.25874 V 18.13309 h 3.36356 V 1.5740591 Z"
     fill="#ffffff"
     id="path4"
     style="stroke-width:0.258735" />
  <path
     fill-rule="evenodd"
     clip-rule="evenodd"
     d="m 247.28741,2.5779523 c 0.30531,0.3078952 0.53558,0.6830606 0.67788,1.0944464 l -0.003,0.00264 c 0.25615,0.7943187 0.31307,1.4670275 0.31307,2.6313354 V 8.69967 c 0,1.1668937 -0.0569,1.837017 -0.31307,2.631333 -0.13971,0.411388 -0.37258,0.786553 -0.67529,1.094448 -0.30273,0.307895 -0.67012,0.540756 -1.07634,0.685647 -0.78656,0.258735 -1.44374,0.318244 -2.58994,0.318244 v 4.703742 h -3.62228 V 1.574052 h 3.61969 c 1.1462,0 1.80597,0.05951 2.58994,0.3182458 0.40621,0.1423049 0.77361,0.3777536 1.07893,0.6856481 z m -2.56665,7.8448397 c 0.0596,-0.06468 0.1035,-0.139717 0.13196,-0.2251 v 0.0025 c 0.0491,-0.175939 0.0699,-0.3596413 0.0647,-0.5433429 V 5.3955593 c 0.005,-0.1837008 -0.0155,-0.3674016 -0.0621,-0.5433432 -0.0285,-0.085381 -0.0724,-0.1604154 -0.13195,-0.2250975 -0.0569,-0.064683 -0.12937,-0.1112549 -0.20699,-0.1423048 -0.163,-0.049156 -0.33376,-0.072446 -0.50194,-0.064682 h -0.39327 v 6.2096352 h 0.39068 c 0.17077,0.0078 0.33895,-0.01294 0.50195,-0.06469 0.0776,-0.03105 0.14748,-0.08021 0.20698,-0.142305 z"
     fill="#ffffff"
     id="path5"
     style="stroke-width:0.258735" />
  <path
     d="m 223.42688,1.5740591 -1.83701,9.3144549 h -0.18112 l -1.83701,-9.3144549 h -4.41143 V 18.13309 h 3.36355 V 8.8186356 h 0.25873 l 2.06989,9.3144544 h 1.30919 l 2.03108,-9.3144544 h 0.2846 V 18.13309 h 3.36355 V 1.5740591 Z"
     fill="#ffffff"
     id="path6"
     style="stroke-width:0.258735" />
  <path
     fill-rule="evenodd"
     clip-rule="evenodd"
     d="m 196.10071,26.382125 h 17.43014 l 7.63687,49.822636 h -10.96098 l -1.1755,-8.563264 h -8.42315 l -1.17549,8.563264 h -10.96099 z m 9.23275,10.898702 h -1.05094 l -2.60012,21.797404 h 6.25896 z"
     fill="#ffffff"
     id="path7"
     style="stroke-width:0.778481" />
  <path
     d="m 273.73839,26.382125 h -17.95172 l -6.59372,49.822636 h 11.04662 l 4.00916,-37.366977 h 1.02759 l 4.00916,37.366977 h 11.04662 z"
     fill="#ffffff"
     id="path8"
     style="stroke-width:0.778481" />
  <path
     d="m 123.10276,26.382125 h 11.1011 l -8.01055,24.125055 v 0.08563 l 8.01055,25.611948 h -11.1011 l -5.96315,-21.018924 h -1.06652 v 21.018924 h -10.8987 V 26.382125 h 10.8987 v 19.461968 h 1.06652 z"
     fill="#ffffff"
     id="path9"
     style="stroke-width:0.778481" />
  <path
     d="m 316.88946,51.293444 h -0.74734 V 26.382125 h -9.34175 v 49.822636 h 10.12801 l 7.76922,-25.689796 h 0.78627 v 25.689796 h 9.34174 V 26.382125 H 323.9814 Z"
     fill="#ffffff"
     id="path10"
     style="stroke-width:0.778481" />
  <path
     d="m 312.24972,17.040381 h 17.12653 v 6.227829 h -17.12653 z"
     fill="#ffffff"
     id="path11"
     style="stroke-width:0.778481" />
  <path
     d="m 303.68646,35.72387 v -9.341745 h -21.79741 v 49.822636 h 21.79741 V 66.863018 H 292.78775 V 55.185837 h 9.34175 v -8.563266 h -9.34175 V 35.72387 Z"
     fill="#ffffff"
     id="path12"
     style="stroke-width:0.778481" />
  <path
     fill-rule="evenodd"
     clip-rule="evenodd"
     d="m 158.00974,29.293636 c 0.94974,1.019807 1.67373,2.226449 2.12525,3.542078 l 0.008,0.0078 c 1.08987,3.067206 1.08987,5.67511 1.08987,13.919199 v 9.092631 c 0,8.251874 0,10.844208 -1.08987,13.911413 -0.45151,1.315629 -1.17551,2.522271 -2.12525,3.542078 -0.95752,1.012028 -2.11746,1.821646 -3.40195,2.358794 -2.0941,0.871899 -4.34391,1.323413 -6.61707,1.323413 -2.27316,0 -4.52296,-0.451514 -6.61707,-1.323413 -1.29227,-0.544939 -2.4522,-1.346766 -3.40195,-2.366579 -0.94974,-1.019806 -1.67373,-2.226448 -2.12525,-3.542077 -1.08987,-3.059421 -1.08987,-5.667324 -1.08987,-13.911414 v -9.09263 c 0,-8.259659 0,-10.851993 1.08987,-13.919199 0.45152,-1.315629 1.17551,-2.522271 2.12525,-3.542078 0.94975,-1.012022 2.10968,-1.821641 3.39417,-2.358791 2.09411,-0.871895 4.34391,-1.323413 6.61707,-1.323413 2.27315,0 4.52296,0.451518 6.61707,1.323413 1.29227,0.53715 2.45221,1.338984 3.40195,2.358791 z m -7.23207,37.094509 c 0.24134,-0.544935 0.32696,-1.167717 0.32696,-3.121699 v -23.93822 c 0,-1.953982 -0.0778,-2.576764 -0.32696,-3.129484 -0.2024,-0.513796 -0.59943,-0.92639 -1.10544,-1.159933 -0.40481,-0.186835 -0.84075,-0.280253 -1.28448,-0.280253 -0.44374,0 -0.87968,0.09342 -1.28449,0.280253 -0.49823,0.233543 -0.89525,0.646137 -1.10544,1.159933 -0.24134,0.55272 -0.32696,1.175502 -0.32696,3.129484 v 23.93822 c 0,1.946197 0.0778,2.56898 0.32696,3.121699 0.2024,0.513796 0.59943,0.92639 1.10544,1.159935 0.40481,0.186834 0.84075,0.280252 1.28449,0.280252 0.44373,0 0.87967,-0.09342 1.28448,-0.280252 0.49823,-0.233545 0.89525,-0.646139 1.10544,-1.159935 z"
     fill="#ffffff"
     id="path13"
     style="stroke-width:0.778481" />
  <path
     fill-rule="evenodd"
     clip-rule="evenodd"
     d="m 189.08661,32.695588 c -0.42816,-1.237781 -1.12101,-2.366575 -2.03183,-3.292965 -0.91082,-0.92639 -2.02404,-1.634805 -3.23847,-2.062969 -2.35879,-0.778478 -4.34391,-0.957529 -7.79257,-0.957529 h -10.8987 v 49.822636 h 10.8987 V 61.561578 c 3.44866,0 5.42599,-0.17905 7.79257,-0.957529 1.22221,-0.435948 2.32765,-1.136579 3.23847,-2.062969 0.91082,-0.92639 1.61145,-2.055184 2.03183,-3.292964 0.7707,-2.397715 0.94196,-4.40619 0.94196,-7.917129 v -6.718271 c 0,-3.503154 -0.17905,-5.527199 -0.94196,-7.917128 z m -9.35731,19.602093 c -0.0856,0.264683 -0.21798,0.498227 -0.39703,0.692846 -0.17904,0.19462 -0.38923,0.342531 -0.63057,0.435948 -0.49044,0.155696 -0.99645,0.225759 -1.51024,0.202405 h -1.1755 V 34.945391 h 1.1755 c 0.50601,-0.02335 1.0198,0.0467 1.51024,0.202404 0.23355,0.09342 0.45153,0.241329 0.63057,0.435949 0.17905,0.194619 0.31139,0.435948 0.39703,0.692845 0.14013,0.544935 0.2024,1.113225 0.18683,1.67373 v 12.658064 c 0.0155,0.568289 -0.0467,1.136578 -0.18683,1.673729 z"
     fill="#ffffff"
     id="path14"
     style="stroke-width:0.778481" />
  <path
     fill-rule="evenodd"
     clip-rule="evenodd"
     d="m 245.26942,46.015358 c 0.96531,0.92639 1.69708,2.055184 2.1486,3.292965 h 0.008 c 0.80962,2.38993 0.99646,4.40619 0.99646,7.909344 v 4.74872 c 0,3.510938 -0.18684,5.519413 -0.99646,7.917132 -0.45152,1.237779 -1.18329,2.366572 -2.1486,3.29296 -0.96531,0.926389 -2.14082,1.62702 -3.42531,2.062973 -2.49113,0.778473 -4.57745,0.957525 -8.22073,0.957525 h -10.128 V 26.37434 h 22.57588 v 9.341745 h -12.45565 v 7.270991 c 3.64328,0 5.7296,0.17905 8.22073,0.957529 1.29228,0.435948 2.46,1.144363 3.42531,2.070753 z m -7.16201,20.318294 c 0.14792,-0.53715 0.21019,-1.08987 0.18684,-1.64259 V 54.236093 c 0.0155,-0.552719 -0.0467,-1.113224 -0.18684,-1.64259 -0.0856,-0.256898 -0.21797,-0.482656 -0.39702,-0.677277 -0.17905,-0.194619 -0.39703,-0.334745 -0.63057,-0.428163 -0.49044,-0.147911 -0.99645,-0.217974 -1.51025,-0.194619 h -1.1755 v 16.348053 h 1.1755 c 0.50601,0.01557 1.01981,-0.04671 1.51025,-0.202405 0.24133,-0.09342 0.45152,-0.233544 0.63057,-0.428164 0.17905,-0.186834 0.31139,-0.420378 0.39702,-0.677276 z"
     fill="#ffffff"
     id="path15"
     style="stroke-width:0.778481" />
</svg>
