<?xml version="1.0" encoding="UTF-8" standalone="no"?>
<svg
   width="542"
   height="112"
   viewBox="0 0 542 112"
   fill="none"
   version="1.1"
   id="svg32"
   sodipodi:docname="game_logo.svg"
   inkscape:version="1.2.2 (732a01da63, 2022-12-09)"
   xmlns:inkscape="http://www.inkscape.org/namespaces/inkscape"
   xmlns:sodipodi="http://sodipodi.sourceforge.net/DTD/sodipodi-0.dtd"
   xmlns="http://www.w3.org/2000/svg"
   xmlns:svg="http://www.w3.org/2000/svg">
  <defs
     id="defs36" />
  <sodipodi:namedview
     id="namedview34"
     pagecolor="#ff00ff"
     bordercolor="#000000"
     borderopacity="0.25"
     inkscape:showpageshadow="2"
     inkscape:pageopacity="0"
     inkscape:pagecheckerboard="0"
     inkscape:deskcolor="#d1d1d1"
     showgrid="false"
     inkscape:zoom="2.8745387"
     inkscape:cx="182.11618"
     inkscape:cy="44.876766"
     inkscape:window-width="2560"
     inkscape:window-height="1334"
     inkscape:window-x="-11"
     inkscape:window-y="-11"
     inkscape:window-maximized="1"
     inkscape:current-layer="svg32" />
  <path
     d="m 332.58106,26.417055 4.79854,-0.0079 V 16.012376 h 4.79852 V 12.813363 H 337.3796 V 6.4153394 h 6.39802 v -3.998806 h -11.19656 z m -89.97219,-0.0079 6.67632,-0.0113 2.52083,-23.9813179 H 247.0075 L 245.00811,18.811463 243.36382,2.4165232 h -3.83801 L 237.81033,18.811467 235.81094,2.4165272 h -4.79852 l 2.58403,23.9729208 6.61314,0.01968 1.19964,-11.59642 z"
     fill="#ffffff"
     id="path146"
     style="stroke-width:0.799753" />
  <path
     fill-rule="evenodd"
     clip-rule="evenodd"
     d="m 281.79674,26.409137 h -4.79851 l -1.59949,-10.39679 h -1.9994 v 10.39679 h -4.79851 V 2.4165431 h 8.37902 c 1.40997,0 4.40823,1.4527447 4.41704,4.51256 v 4.6160619 c 0,1.450833 -0.683,2.487314 -1.59952,3.267552 z M 276.59197,6.9291031 c -8.1e-4,-0.1366545 -0.0562,-0.2673025 -0.15355,-0.3633446 -0.0967,-0.096028 -0.22794,-0.1496409 -0.36469,-0.1490816 l -2.67438,-0.00133 v 6.3980241 l 2.68877,0.0044 c 0.13515,0 0.26553,-0.05373 0.3607,-0.149473 0.0959,-0.09573 0.14954,-0.22553 0.14954,-0.360848 V 6.9291104 Z M 257.86255,26.602438 c -1.40598,0 -4.45704,-1.925647 -4.45704,-4.991821 V 7.2150628 c 0,-3.0682533 3.04468,-4.9941627 4.45704,-4.9941627 h 3.77804 c 1.40595,0 4.56098,1.9259094 4.56098,4.9941627 V 21.610617 c 0,3.066174 -3.14863,4.985502 -4.56098,4.985502 z m 0.84933,-20.1752124 c -0.13355,0.00106 -0.26072,0.054082 -0.35589,0.1478026 -0.0944,0.093707 -0.14956,0.2207325 -0.15195,0.3540749 V 21.912206 c 0,0.135318 0.0536,0.265118 0.14957,0.360848 0.0952,0.09564 0.22552,0.149474 0.36067,0.149474 h 2.17854 c 0.13514,0 0.26552,-0.05381 0.36068,-0.149474 0.0959,-0.09573 0.14957,-0.22553 0.14957,-0.360848 V 6.9291031 c -8.1e-4,-0.1351747 -0.0553,-0.2644306 -0.15117,-0.3596167 -0.0959,-0.095191 -0.22552,-0.1485941 -0.36068,-0.1485941 z"
     fill="#ffffff"
     id="path148"
     style="stroke-width:0.799753" />
  <path
     d="m 288.59466,2.4165431 h -4.79852 V 26.409137 h 10.3968 v -3.998765 h -5.59828 z"
     fill="#ffffff"
     id="path150"
     style="stroke-width:0.799753" />
  <path
     fill-rule="evenodd"
     clip-rule="evenodd"
     d="m 304.96639,26.409137 h -8.3742 V 2.4165431 h 8.3742 c 1.40837,0 4.42185,1.4450581 4.42185,4.5112007 V 21.57519 c 0,3.064094 -3.01348,4.836027 -4.42185,4.833947 z M 304.58972,6.9277438 c 0,-0.06748 -0.0136,-0.13428 -0.0392,-0.1965879 -0.0258,-0.062301 -0.0642,-0.118887 -0.11113,-0.1665087 -0.0481,-0.0476 -0.1047,-0.085306 -0.16717,-0.1109353 -0.0624,-0.025632 -0.12954,-0.03869 -0.19672,-0.038398 h -2.68476 V 22.410377 l 2.68478,0.01264 c 0.0673,3.21e-4 0.13354,-0.01264 0.19594,-0.03815 0.0625,-0.0255 0.11915,-0.06303 0.16714,-0.11045 0.0472,-0.04736 0.0854,-0.103723 0.11114,-0.165787 0.0264,-0.06208 0.0401,-0.128601 0.0401,-0.195942 z m 17.25306,19.6746942 c -1.40596,0 -4.45701,-1.925647 -4.45701,-4.991821 V 7.2150628 c 0,-3.0682533 3.04466,-4.9941627 4.45701,-4.9941627 h 3.77804 c 1.40598,0 4.56099,1.9259094 4.56099,4.9941627 V 21.610617 c 0,3.066174 -3.14862,4.985502 -4.56099,4.985502 z m 0.84935,-20.1752124 c -0.13357,0.00106 -0.26074,0.054082 -0.35588,0.1478026 -0.0943,0.093707 -0.14955,0.2207325 -0.15195,0.3540749 V 21.912206 c 0,0.135318 0.0537,0.265118 0.14954,0.360848 0.095,0.09564 0.22553,0.149474 0.3607,0.149474 h 2.17852 c 0.13518,0 0.26553,-0.05381 0.3607,-0.149474 0.0959,-0.09573 0.14954,-0.22553 0.14954,-0.360848 V 6.9291031 c -7.9e-4,-0.1351747 -0.0553,-0.2644306 -0.15114,-0.3596167 -0.096,-0.095191 -0.22553,-0.1485941 -0.36069,-0.1485941 z"
     fill="#ffffff"
     id="path152"
     style="stroke-width:0.799753" />
  <path
     d="m 267.27724,67.05019 15.73194,6.2911 -0.005,0.01265 c 3.77004,1.497212 5.65025,4.563307 5.65025,8.810715 v 14.908997 c 0,9.257138 -9.32352,14.908998 -13.5638,14.908998 h -11.37955 c -4.24189,0 -14.30437,-5.67826 -14.30437,-14.935396 V 84.791046 l 15.99504,0.02639 0.0569,12.882419 c 0.004,0.408662 0.16716,0.798955 0.45747,1.086859 0.28951,0.287916 0.73418,0.400687 1.14204,0.399884 h 4.79854 c 0.40867,8.03e-4 0.85332,-0.11198 1.14284,-0.399884 0.28949,-0.287904 0.45427,-0.678197 0.45665,-1.086859 l -0.0569,-11.676394 c 0,-0.909318 0,-1.36438 -0.20873,-1.683482 -0.20953,-0.320694 -0.62939,-0.503843 -1.47153,-0.870119 l -0.006,-0.0024 -16.32376,-6.416896 c -3.84842,-1.526728 -5.98296,-4.503083 -5.98296,-8.815503 V 53.200867 c 0,-9.257462 9.75539,-14.795432 13.99567,-14.795432 h 11.28211 c 4.2427,0 13.97009,5.668331 13.97009,14.925792 l -0.06,12.265813 H 273.3995 V 52.734532 c -0.004,-0.408434 -0.16794,-0.799034 -0.45826,-1.086307 -0.2903,-0.28727 -0.68219,-0.44786 -1.09086,-0.446741 h -4.89929 c -0.40868,-0.0011 -0.80056,0.159471 -1.09086,0.446741 -0.29031,0.287273 -0.45505,0.677873 -0.45827,1.086307 v 11.662877 c 0,1.522491 0,1.912611 1.87544,2.652781 z m 155.95186,0 15.73195,6.2911 -0.005,0.01265 c 3.77005,1.497212 5.59028,4.563307 5.59028,8.810715 v 14.909046 c 7e-5,9.257159 -9.26348,14.909019 -13.50376,14.909019 h -11.37954 c -4.24192,0 -14.30439,-5.67825 -14.30439,-14.935393 V 84.79112 l 15.99507,0.02638 v 12.845627 c 0.002,0.408686 0.16714,0.798955 0.45665,1.086859 0.29032,0.287113 0.68221,0.437479 1.09008,0.436676 h 4.9041 c 0.40788,8.03e-4 0.79974,-0.149563 1.09003,-0.436676 0.28954,-0.287904 0.45428,-0.678173 0.45667,-1.086859 v -11.6396 c 0,-0.909317 0,-1.364379 -0.20873,-1.683482 -0.20953,-0.320695 -0.62941,-0.503842 -1.47155,-0.870132 l -0.006,-0.0024 -16.32378,-6.416913 c -3.84839,-1.526717 -5.98294,-4.503072 -5.98294,-8.815504 V 53.200867 c 0,-9.257462 9.75539,-14.795432 13.99566,-14.795432 h 11.28213 c 4.2428,0 13.91023,5.668331 13.91023,14.925792 V 65.59704 H 429.3513 V 52.734532 c -0.004,-0.408434 -0.16793,-0.799034 -0.45826,-1.086307 -0.29031,-0.28727 -0.68217,-0.44786 -1.09085,-0.446741 h -4.8993 c -0.40866,-0.0011 -0.80054,0.159471 -1.09086,0.446741 -0.2903,0.287273 -0.45506,0.677873 -0.45825,1.086307 v 11.662877 c 0,1.522491 0,1.912611 1.87542,2.652781 z m -294.18518,9.427568 4.39864,34.705212 h 19.17272 l 8.01888,-71.977782 h -14.79544 l -5.59826,48.784935 -5.1984,-48.784935 h -11.99629 l -5.19839,48.784935 -5.5983,-48.784935 H 97.453665 l 7.997525,71.977782 h 19.19409 z"
     fill="#ffffff"
     id="path154"
     style="stroke-width:0.799753" />
  <path
     fill-rule="evenodd"
     clip-rule="evenodd"
     d="M 376.56511,111.18297 H 361.37219 V 39.20295 l 24.32609,0.0023 c 4.25628,0 14.06206,4.835386 14.06206,13.995678 v 13.859004 c 0,9.380541 -9.64903,13.736475 -13.9045,13.736475 l -9.29074,-0.0048 z m 0.01,-41.591251 h 6.39563 c 0.20794,0.0011 0.41428,-0.03817 0.60622,-0.116481 0.19274,-0.07817 0.3679,-0.193627 0.51504,-0.33942 0.14795,-0.145879 0.26472,-0.31926 0.34469,-0.510323 0.0799,-0.191059 0.12075,-0.395957 0.12075,-0.602846 V 52.77052 c -0.002,-0.41803 -0.17116,-0.817988 -0.46945,-1.112216 -0.29834,-0.294149 -0.70139,-0.458499 -1.12126,-0.45682 h -6.39435 v 18.394405 z"
     fill="#ffffff"
     id="path156"
     style="stroke-width:0.799753" />
  <path
     d="M 354.97417,111.18297 V 39.205188 H 339.77886 V 111.18297 Z M 310.18798,80.792344 h 7.99754 v 30.390626 h 15.19531 V 39.205188 h -15.19531 v 30.390701 h -7.99754 V 39.205188 h -15.1953 v 71.977782 h 15.1953 z"
     fill="#ffffff"
     id="path158"
     style="stroke-width:0.799753" />
  <path
     fill-rule="evenodd"
     clip-rule="evenodd"
     d="m 239.01078,77.192965 5.59745,33.990005 h -15.1953 L 224.6144,80.792344 h -3.99876 V 111.18297 H 205.42032 V 39.205188 h 24.68998 c 4.25631,0 13.67258,4.812272 13.69819,13.995679 v 13.85477 c 0,4.35648 -2.03377,7.790063 -4.79771,10.137328 z m -10.408,-24.451716 c -0.004,-0.410753 -0.16956,-0.803673 -0.46305,-1.092303 -0.29352,-0.288711 -0.6902,-0.449619 -1.10289,-0.447381 h -6.4212 v 18.394081 l 6.4212,2.43e-4 c 0.20236,7.89e-4 0.4031,-0.03817 0.59022,-0.1149 0.18717,-0.07661 0.35751,-0.18931 0.50066,-0.331676 0.14317,-0.142352 0.25594,-0.311417 0.33348,-0.497602 0.0777,-0.186173 0.11673,-0.385721 0.11601,-0.587176 l 0.0361,-15.323347 z M 173.4302,111.18297 h -15.19529 l 7.99753,-71.977782 h 27.19159 l 7.99756,71.977782 h -15.13455 l -2.06016,-16.794822 h -8.79728 z m 9.19718,-30.390626 -2.79913,-28.39139 -2.79915,28.39139 z"
     fill="#ffffff"
     id="path160"
     style="stroke-width:0.799753" />
  <path
     id="path138"
     d="M 198.45439,0.05136611 V 12.207333 l 4.8397,3.51913 V 4.891065 h 1.99282 V 0.05136611 Z m 8.82534,0 V 4.891065 h 1.42344 v 1.9928204 h -3.41626 V 18.988706 l 3.41626,2.428742 v 2.889142 l -5.40908,-3.940038 v -2.488243 l -4.8397,-3.538593 v 8.443903 l 12.52629,9.152847 12.52629,-9.152847 v -8.441122 l -4.83971,3.539149 v 2.487687 l -5.40907,3.934485 v -2.88637 l 3.41626,-2.428742 V 6.8838854 h -3.41626 V 4.891065 h 1.42344 V 0.05136611 Z m 9.39472,0 V 4.891065 h 1.99281 v 10.624661 l 4.83971,-3.453518 V 0.05136611 Z m -5.69099,8.89928839 1.16155,2.9436375 3.10822,0.21018 -2.37649,1.985033 0.73731,3.054287 -2.63616,-1.668095 -2.63058,1.668095 0.74008,-3.057068 -2.38259,-1.992822 3.11988,-0.210728 z"
     style="fill:#ffffff;fill-opacity:1;stroke-width:0.284689" />
</svg>
