<?xml version="1.0" encoding="UTF-8" standalone="no"?>
<svg
   width="542"
   height="112"
   viewBox="0 0 542 112"
   fill="none"
   version="1.1"
   id="svg32"
   sodipodi:docname="game_logo.svg"
   inkscape:version="1.4 (86a8ad7, 2024-10-11)"
   xmlns:inkscape="http://www.inkscape.org/namespaces/inkscape"
   xmlns:sodipodi="http://sodipodi.sourceforge.net/DTD/sodipodi-0.dtd"
   xmlns="http://www.w3.org/2000/svg"
   xmlns:svg="http://www.w3.org/2000/svg">
  <defs
     id="defs36" />
  <sodipodi:namedview
     id="namedview34"
     pagecolor="#0013ff"
     bordercolor="#000000"
     borderopacity="0.25"
     inkscape:showpageshadow="2"
     inkscape:pageopacity="0"
     inkscape:pagecheckerboard="0"
     inkscape:deskcolor="#d1d1d1"
     showgrid="false"
     inkscape:zoom="1.4372694"
     inkscape:cx="126.97689"
     inkscape:cy="57.400512"
     inkscape:window-width="1920"
     inkscape:window-height="1009"
     inkscape:window-x="-8"
     inkscape:window-y="-8"
     inkscape:window-maximized="1"
     inkscape:current-layer="svg32" />
  <path
     id="path138"
     d="M 229.88111,0.05136611 V 12.207333 l 4.8397,3.51913 V 4.891065 h 1.99282 V 0.05136611 Z m 8.82534,0 V 4.891065 h 1.42344 v 1.9928204 h -3.41626 V 18.988706 l 3.41626,2.428742 v 2.889142 l -5.40907,-3.940038 v -2.488243 l -4.8397,-3.538593 v 8.443903 l 12.52628,9.152847 12.52629,-9.152847 v -8.441122 l -4.83971,3.539149 v 2.487687 l -5.40906,3.934485 v -2.88637 l 3.41625,-2.428742 V 6.8838854 h -3.41625 V 4.891065 h 1.42344 V 0.05136611 Z m 9.39472,0 V 4.891065 h 1.99281 v 10.624661 l 4.83971,-3.453518 V 0.05136611 Z m -5.69097,8.89928839 1.16155,2.9436375 3.10821,0.21018 -2.37648,1.985033 0.73731,3.054287 -2.63616,-1.668095 -2.63058,1.668095 0.74008,-3.057068 -2.38259,-1.992822 3.11988,-0.210728 z"
     style="fill:#ffffff;fill-opacity:1;stroke-width:0.284689" />
  <path
     d="m 293.295,2.3273404 -3.73998,12.0402156 h -0.38378 V 2.3273404 h -4.89135 V 26.40777 h 4.83115 L 292.9338,13.9913 h 0.37626 v 12.41647 h 4.89135 V 2.3273404 Z"
     fill="#ffffff"
     id="path4"
     style="stroke-width:0.376257" />
  <path
     fill-rule="evenodd"
     clip-rule="evenodd"
     d="m 310.68182,3.7872193 c 0.44399,0.4477465 0.77885,0.9933185 0.98579,1.5915628 l -0.004,0.00384 c 0.3725,1.1551121 0.45527,2.1333768 0.45527,3.8265335 v 3.4803724 c 0,1.696917 -0.0828,2.671423 -0.45527,3.82653 -0.20317,0.598248 -0.54181,1.14382 -0.98203,1.591566 -0.44023,0.447746 -0.9745,0.786376 -1.56522,0.997079 -1.14383,0.376258 -2.09952,0.462796 -3.76634,0.462796 v 6.840263 h -5.26759 V 2.3273301 h 5.26383 c 1.66681,0 2.62627,0.086541 3.76633,0.4627985 0.59072,0.2069422 1.125,0.5493358 1.56899,0.9970813 z m -3.73246,11.4081017 c 0.0866,-0.09406 0.15051,-0.203179 0.19189,-0.327344 v 0.0037 c 0.0714,-0.255853 0.10159,-0.522996 0.0941,-0.790138 V 7.8846321 c 0.007,-0.2671409 -0.0225,-0.5342818 -0.0903,-0.7901391 -0.0414,-0.124163 -0.10535,-0.2332788 -0.19189,-0.3273406 -0.0827,-0.094063 -0.18814,-0.1617889 -0.301,-0.2069422 -0.23705,-0.071484 -0.48537,-0.105352 -0.72994,-0.094062 h -0.57191 v 9.0301598 h 0.56815 c 0.24833,0.01129 0.4929,-0.01882 0.72994,-0.09407 0.11286,-0.04515 0.21447,-0.116639 0.301,-0.206941 z"
     fill="#ffffff"
     id="path5"
     style="stroke-width:0.376257" />
  <path
     d="m 275.98343,2.3273404 -2.67142,13.5452416 h -0.26338 L 270.37721,2.3273404 h -6.41517 V 26.40777 h 4.89132 V 12.862529 h 0.37626 l 3.01006,13.545241 h 1.90387 l 2.95362,-13.545241 h 0.41387 V 26.40777 h 4.89133 V 2.3273404 Z"
     fill="#ffffff"
     id="path6"
     style="stroke-width:0.376257" />
  <path
     fill-rule="evenodd"
     clip-rule="evenodd"
     d="m 236.24523,38.40366 h 25.34721 l 11.10567,72.45294 h -15.93964 l -1.70944,-12.452847 h -12.24908 l -1.70943,12.452847 h -15.93965 z m 13.42643,15.849081 h -1.5283 l -3.78114,31.698162 h 9.1019 z"
     fill="#ffffff"
     id="path7"
     style="stroke-width:1.13208" />
  <path
     d="m 349.1473,38.40366 h -26.1057 l -9.58871,72.45294 h 16.06419 l 5.83019,-54.339705 h 1.49435 l 5.83019,54.339705 h 16.06418 z"
     fill="#ffffff"
     id="path8"
     style="stroke-width:1.13208" />
  <path
     d="m 130.09035,38.40366 h 16.14342 l -11.64908,35.083073 v 0.124528 l 11.64908,37.245339 h -16.14342 l -8.6717,-30.566083 H 119.8677 V 110.8566 H 104.01861 V 38.40366 h 15.84909 v 28.30193 h 1.55095 z"
     fill="#ffffff"
     id="path9"
     style="stroke-width:1.13208" />
  <path
     d="m 411.89832,74.630131 h -1.08679 V 38.40366 H 397.2266 v 72.45294 h 14.72834 l 11.29813,-37.358547 h 1.1434 V 110.8566 h 13.58492 V 38.40366 h -15.76983 z"
     fill="#ffffff"
     id="path10"
     style="stroke-width:1.13208" />
  <path
     d="m 405.15115,24.818734 h 24.9057 v 9.056617 h -24.9057 z"
     fill="#ffffff"
     id="path11"
     style="stroke-width:1.13208" />
  <path
     d="M 392.6983,51.988587 V 38.40366 H 361.00013 V 110.8566 H 392.6983 V 97.271675 H 376.84922 V 80.290517 h 13.58492 v -12.45285 h -13.58492 v -15.84908 z"
     fill="#ffffff"
     id="path12"
     style="stroke-width:1.13208" />
  <path
     fill-rule="evenodd"
     clip-rule="evenodd"
     d="m 180.85269,42.637629 c 1.38113,1.483021 2.43397,3.237741 3.09057,5.150951 l 0.0113,0.01132 c 1.58491,4.460384 1.58491,8.252843 1.58491,20.24154 v 13.222662 c 0,12.000018 0,15.769835 -1.58491,20.230218 -0.6566,1.91321 -1.70944,3.66793 -3.09057,5.15095 -1.39245,1.47171 -3.07925,2.64907 -4.94718,3.4302 -3.04528,1.26793 -6.31699,1.92453 -9.62265,1.92453 -3.30567,0 -6.57737,-0.6566 -9.62266,-1.92453 -1.87925,-0.79246 -3.56604,-1.95849 -4.94718,-3.44152 -1.38113,-1.48302 -2.43396,-3.23774 -3.09057,-5.15095 -1.58491,-4.449063 -1.58491,-8.241521 -1.58491,-20.230219 v -13.22266 c 0,-12.01134 0,-15.781157 1.58491,-20.241541 0.65661,-1.91321 1.70944,-3.66793 3.09057,-5.150951 1.38114,-1.4717 3.06793,-2.649061 4.93586,-3.430194 3.04529,-1.267926 6.31699,-1.924531 9.62266,-1.924531 3.30566,0 6.57736,0.656605 9.62265,1.924531 1.87925,0.781133 3.56605,1.947173 4.94718,3.430194 z m -10.517,53.943478 c 0.35095,-0.792454 0.47547,-1.698115 0.47547,-4.539629 V 57.230104 c 0,-2.841514 -0.1132,-3.747175 -0.47547,-4.55095 -0.29434,-0.747171 -0.8717,-1.347172 -1.60755,-1.686795 -0.58868,-0.271699 -1.22264,-0.407548 -1.86792,-0.407548 -0.64529,0 -1.27925,0.135849 -1.86793,0.407548 -0.72453,0.339623 -1.30189,0.939624 -1.60755,1.686795 -0.35095,0.803775 -0.47547,1.709436 -0.47547,4.55095 v 34.811374 c 0,2.830193 0.1132,3.735855 0.47547,4.539629 0.29434,0.747171 0.8717,1.347172 1.60755,1.686797 0.58868,0.271698 1.22264,0.407547 1.86793,0.407547 0.64528,0 1.27924,-0.135849 1.86792,-0.407547 0.72453,-0.339625 1.30189,-0.939626 1.60755,-1.686797 z"
     fill="#ffffff"
     id="path13"
     style="stroke-width:1.13208" />
  <path
     fill-rule="evenodd"
     clip-rule="evenodd"
     d="m 226.04521,47.584806 c -0.62264,-1.800002 -1.63019,-3.441514 -2.95472,-4.788686 -1.32453,-1.347172 -2.9434,-2.377362 -4.70944,-3.000005 -3.4302,-1.132077 -6.31699,-1.392455 -11.33209,-1.392455 h -15.84908 v 72.45294 h 15.84908 V 89.562229 c 5.0151,0 7.89057,-0.260378 11.33209,-1.392455 1.77736,-0.633963 3.38491,-1.652833 4.70944,-3.000005 1.32453,-1.347172 2.3434,-2.988684 2.95472,-4.788686 1.12076,-3.486798 1.36981,-6.407557 1.36981,-11.513225 v -9.769827 c 0,-5.094347 -0.26037,-8.037748 -1.36981,-11.513225 z M 212.43764,76.09051 c -0.12453,0.384906 -0.31698,0.72453 -0.57736,1.007549 -0.26037,0.283019 -0.56603,0.498114 -0.91698,0.633963 -0.71321,0.226416 -1.44906,0.328302 -2.19623,0.29434 h -1.70943 V 50.856509 h 1.70943 c 0.73585,-0.03396 1.48302,0.06792 2.19623,0.29434 0.33962,0.13585 0.65661,0.350944 0.91698,0.633964 0.26038,0.283019 0.45283,0.633963 0.57736,1.007548 0.20378,0.792454 0.29434,1.618871 0.2717,2.433966 v 18.407576 c 0.0226,0.826416 -0.0679,1.652832 -0.2717,2.433966 z"
     fill="#ffffff"
     id="path14"
     style="stroke-width:1.13208" />
  <path
     fill-rule="evenodd"
     clip-rule="evenodd"
     d="m 307.74723,66.954647 c 1.40377,1.347172 2.46793,2.988684 3.12454,4.788687 h 0.0113 c 1.17736,3.475477 1.44906,6.407557 1.44906,11.501904 v 6.905671 c 0,5.105668 -0.27171,8.026427 -1.44906,11.513231 -0.65661,1.8 -1.72076,3.44151 -3.12454,4.78868 -1.40378,1.34717 -3.11321,2.36604 -4.98114,3.00001 -3.62264,1.13207 -6.65661,1.39245 -11.95473,1.39245 H 276.09435 V 38.392339 h 32.83024 v 13.584927 h -18.11323 v 10.573601 c 5.29812,0 8.33209,0.260378 11.95473,1.392455 1.87925,0.633963 3.57736,1.664153 4.98114,3.011325 z m -10.41511,29.547215 c 0.2151,-0.781133 0.30566,-1.584908 0.2717,-2.388683 V 78.909382 c 0.0226,-0.803774 -0.0679,-1.61887 -0.2717,-2.388683 -0.12453,-0.373585 -0.31698,-0.701887 -0.57736,-0.984907 -0.26037,-0.283019 -0.57736,-0.486793 -0.91698,-0.622642 -0.71321,-0.215095 -1.44906,-0.316982 -2.19624,-0.283019 h -1.70943 v 23.773622 h 1.70943 c 0.73586,0.02264 1.48303,-0.06792 2.19624,-0.294341 0.35093,-0.13585 0.65661,-0.339624 0.91698,-0.622643 0.26038,-0.271698 0.45283,-0.611321 0.57736,-0.984907 z"
     fill="#ffffff"
     id="path15"
     style="stroke-width:1.13208" />
</svg>
