<?xml version="1.0" encoding="UTF-8" standalone="no"?>
<svg
   width="440"
   height="77"
   viewBox="0 0 440 77"
   fill="none"
   version="1.1"
   id="svg26"
   sodipodi:docname="game_logo_static.svg"
   inkscape:version="1.2.2 (732a01da63, 2022-12-09)"
   xmlns:inkscape="http://www.inkscape.org/namespaces/inkscape"
   xmlns:sodipodi="http://sodipodi.sourceforge.net/DTD/sodipodi-0.dtd"
   xmlns="http://www.w3.org/2000/svg"
   xmlns:svg="http://www.w3.org/2000/svg">
  <defs
     id="defs30" />
  <sodipodi:namedview
     id="namedview28"
     pagecolor="#00ffff"
     bordercolor="#000000"
     borderopacity="0.25"
     inkscape:showpageshadow="2"
     inkscape:pageopacity="0"
     inkscape:pagecheckerboard="0"
     inkscape:deskcolor="#d1d1d1"
     showgrid="false"
     inkscape:zoom="2"
     inkscape:cx="-33.75"
     inkscape:cy="-70.500001"
     inkscape:window-width="2560"
     inkscape:window-height="1334"
     inkscape:window-x="-11"
     inkscape:window-y="-11"
     inkscape:window-maximized="1"
     inkscape:current-layer="svg26" />
  <path
     d="m 262.32913,18.148804 3.2984,-0.0054 V 10.9969 h 3.2984 V 8.797943 h -3.2984 V 4.4000909 h 4.39786 v -2.748686 h -7.69626 z m -61.84477,-0.0054 4.58913,-0.0078 1.73276,-16.4841981 h -3.29839 L 202.13353,12.920886 201.00328,1.6513873 h -2.63817 L 197.18594,12.9209 195.8116,1.6514008 h -3.29839 l 1.77621,16.4784272 4.54571,0.01353 0.8246,-7.971107 z"
     fill="#ffffff"
     id="path146"
     style="stroke-width:0.549732" />
  <path
     fill-rule="evenodd"
     clip-rule="evenodd"
     d="m 227.42116,18.143362 h -3.29838 l -1.09945,-7.146512 h -1.37434 v 7.146512 h -3.29838 V 1.6514118 h 5.75955 c 0.96917,0 3.03011,0.9985831 3.03616,3.1018283 v 3.1729733 c 0,0.9972686 -0.46948,1.7097221 -1.09948,2.2460396 z M 223.84353,4.7532401 c -5.4e-4,-0.093933 -0.0386,-0.183737 -0.10555,-0.249754 -0.0664,-0.066009 -0.15667,-0.1028597 -0.25067,-0.1024756 l -1.8383,-8.935e-4 v 4.3978521 l 1.84818,0.00302 c 0.0928,0 0.18253,-0.036933 0.24795,-0.1027444 0.0659,-0.065802 0.10278,-0.1550241 0.10278,-0.2480383 V 4.7532608 Z M 210.96936,18.276231 c -0.96643,0 -3.06366,-1.323643 -3.06366,-3.431259 V 4.9498025 c 0,-2.1090455 2.09284,-3.4328711 3.06366,-3.4328711 h 2.59695 c 0.96642,0 3.13511,1.3238256 3.13511,3.4328711 v 9.8951695 c 0,2.107616 -2.16431,3.426916 -3.13511,3.426916 z m 0.58382,-13.8679693 c -0.0917,7.561e-4 -0.17921,0.037173 -0.24463,0.1015955 -0.0648,0.064414 -0.1028,0.1517269 -0.10445,0.2433829 V 15.052277 c 0,0.09301 0.0368,0.182235 0.10282,0.248037 0.0654,0.06574 0.15501,0.102745 0.24791,0.102745 h 1.49749 c 0.0928,0 0.18251,-0.03699 0.24792,-0.102745 0.0659,-0.06581 0.1028,-0.155023 0.1028,-0.248037 V 4.7532401 c -5.5e-4,-0.092916 -0.038,-0.1817628 -0.1039,-0.2471922 -0.0659,-0.065431 -0.15502,-0.10214 -0.24793,-0.10214 z"
     fill="#ffffff"
     id="path148"
     style="stroke-width:0.549732" />
  <path
     d="m 232.0939,1.6514118 h -3.29839 V 18.143362 h 7.14652 v -2.748659 h -3.84813 z"
     fill="#ffffff"
     id="path150"
     style="stroke-width:0.549732" />
  <path
     fill-rule="evenodd"
     clip-rule="evenodd"
     d="m 243.34744,18.143362 h -5.75623 V 1.6514118 h 5.75623 c 0.96808,0 3.03947,0.9932992 3.03947,3.1008943 V 14.820619 c 0,2.106187 -2.07139,3.324172 -3.03947,3.322743 z M 243.08853,4.7523061 c 0,-0.046384 -0.009,-0.092301 -0.0269,-0.1351301 -0.0177,-0.042824 -0.0441,-0.08172 -0.0764,-0.1144544 -0.033,-0.032719 -0.0719,-0.058639 -0.11492,-0.076253 -0.0429,-0.017617 -0.089,-0.026594 -0.13522,-0.026395 h -1.84544 V 15.394705 l 1.84546,0.0087 c 0.0462,2.19e-4 0.0917,-0.0087 0.13469,-0.02622 0.0429,-0.01753 0.0819,-0.04332 0.11489,-0.07592 0.0324,-0.03254 0.0587,-0.0713 0.0764,-0.113959 0.0181,-0.04267 0.0276,-0.0884 0.0276,-0.134685 z m 11.85936,13.5239249 c -0.96643,0 -3.06365,-1.323643 -3.06365,-3.431259 V 4.9498025 c 0,-2.1090455 2.09282,-3.4328711 3.06365,-3.4328711 h 2.59694 c 0.96644,0 3.13511,1.3238256 3.13511,3.4328711 v 9.8951695 c 0,2.107616 -2.16429,3.426916 -3.13511,3.426916 z m 0.58382,-13.8679693 c -0.0918,7.561e-4 -0.17924,0.037173 -0.24462,0.1015955 -0.0648,0.064414 -0.1028,0.1517269 -0.10445,0.2433829 V 15.052277 c 0,0.09301 0.0369,0.182235 0.10279,0.248037 0.0652,0.06574 0.15503,0.102745 0.24794,0.102745 h 1.49746 c 0.0929,0 0.18253,-0.03699 0.24794,-0.102745 0.0659,-0.06581 0.10278,-0.155023 0.10278,-0.248037 V 4.7532401 c -5.4e-4,-0.092916 -0.038,-0.1817628 -0.10387,-0.2471922 -0.0659,-0.065431 -0.15504,-0.10214 -0.24794,-0.10214 z"
     fill="#ffffff"
     id="path152"
     style="stroke-width:0.549732" />
  <path
     d="m 217.4408,46.079073 10.81377,4.324354 -0.003,0.0087 c 2.59144,1.029148 3.88386,3.13671 3.88386,6.056279 v 10.248097 c 0,6.36314 -6.40877,10.248096 -9.32344,10.248096 h -7.82203 c -2.91578,0 -9.83249,-3.903102 -9.83249,-10.266242 v -8.42463 l 10.99462,0.01814 0.0391,8.855074 c 0.003,0.280905 0.1149,0.549183 0.31445,0.747082 0.19901,0.197907 0.50467,0.275422 0.78502,0.27487 h 3.29841 c 0.28089,5.52e-4 0.58655,-0.07698 0.78555,-0.27487 0.19899,-0.197899 0.31226,-0.466177 0.31389,-0.747082 l -0.0391,-8.026081 c 0,-0.625043 0,-0.937842 -0.14348,-1.157186 -0.14403,-0.220437 -0.43264,-0.346329 -1.01151,-0.598099 l -0.004,-0.0017 -11.22057,-4.410825 c -2.64531,-1.049437 -4.11255,-3.095314 -4.11255,-6.05957 V 36.559376 c 0,-6.363364 6.70563,-10.170035 9.62029,-10.170035 h 7.75508 c 2.91634,0 9.60271,3.896279 9.60271,10.259642 l -0.0412,8.431233 h -10.44449 v -8.841387 c -0.003,-0.280749 -0.11544,-0.549238 -0.315,-0.746703 -0.19954,-0.197462 -0.46893,-0.307849 -0.74983,-0.307079 h -3.36766 c -0.28091,-7.57e-4 -0.55027,0.109617 -0.74982,0.307079 -0.19956,0.197465 -0.31279,0.465954 -0.31501,0.746703 v 8.016788 c 0,1.046525 0,1.314685 1.28915,1.823461 z m 107.19768,0 10.81378,4.324354 -0.003,0.0087 c 2.59144,1.029148 3.84263,3.13671 3.84263,6.056279 v 10.248131 c 5e-5,6.363154 -6.3675,10.24811 -9.28216,10.24811 h -7.82205 c -2.91579,0 -9.8325,-3.903095 -9.8325,-10.26624 v -8.42463 l 10.99464,0.01813 v 8.829785 c 9.8e-4,0.280921 0.11489,0.549184 0.31389,0.747082 0.19956,0.197354 0.46894,0.300712 0.7493,0.300161 h 3.37097 c 0.28036,5.51e-4 0.54971,-0.102807 0.74925,-0.300161 0.19903,-0.197898 0.31227,-0.466161 0.31391,-0.747082 v -8.000789 c 0,-0.625043 0,-0.937842 -0.14348,-1.157187 -0.14402,-0.220437 -0.43265,-0.346328 -1.01151,-0.598108 l -0.004,-0.0017 -11.22059,-4.410836 c -2.6453,-1.04943 -4.11253,-3.095306 -4.11253,-6.059572 V 36.559376 c 0,-6.363364 6.70562,-10.170035 9.62029,-10.170035 h 7.75508 c 2.91639,0 9.56156,3.896279 9.56156,10.259642 v 8.431233 H 328.8473 v -8.841387 c -0.003,-0.280749 -0.11543,-0.549238 -0.31501,-0.746703 -0.19955,-0.197462 -0.4689,-0.307849 -0.74981,-0.307079 h -3.36766 c -0.28091,-7.57e-4 -0.55029,0.109617 -0.74984,0.307079 -0.19955,0.197465 -0.31281,0.465954 -0.315,0.746703 v 8.016788 c 0,1.046525 0,1.314685 1.28913,1.823461 z m -202.21602,6.480289 3.02352,23.855553 h 13.17887 l 5.51199,-49.475847 H 133.9668 l -3.84811,33.533625 -3.57326,-33.533625 h -8.24597 l -3.57325,33.533625 -3.84815,-33.533625 h -10.17001 l 5.49732,49.475847 h 13.19356 z"
     fill="#ffffff"
     id="path154"
     style="stroke-width:0.549732" />
  <path
     fill-rule="evenodd"
     clip-rule="evenodd"
     d="M 292.56274,76.414915 H 282.11948 V 26.937529 l 16.72118,0.0016 c 2.92568,0 9.66593,3.323732 9.66593,9.620302 v 9.526357 c 0,6.447965 -6.63252,9.442131 -9.55763,9.442131 l -6.38623,-0.0033 z m 0.007,-28.588855 h 4.39621 c 0.14294,7.56e-4 0.28477,-0.02624 0.41671,-0.08006 0.13248,-0.05374 0.25287,-0.133094 0.35401,-0.233308 0.10171,-0.100275 0.18198,-0.219453 0.23694,-0.350785 0.0549,-0.13133 0.083,-0.272171 0.083,-0.414382 V 36.26356 c -9.9e-4,-0.287344 -0.11765,-0.562265 -0.32268,-0.764512 -0.20507,-0.20219 -0.48213,-0.31516 -0.77074,-0.314006 h -4.39532 v 12.643884 z"
     fill="#ffffff"
     id="path156"
     style="stroke-width:0.549732" />
  <path
     d="M 277.72163,76.414915 V 26.939068 H 267.27674 V 76.414915 Z M 246.93665,55.525107 h 5.49732 v 20.889808 h 10.44491 V 26.939068 h -10.44491 v 20.889858 h -5.49732 V 26.939068 h -10.4449 v 49.475847 h 10.4449 z"
     fill="#ffffff"
     id="path158"
     style="stroke-width:0.549732" />
  <path
     fill-rule="evenodd"
     clip-rule="evenodd"
     d="m 198.0111,53.050978 3.84755,23.363937 h -10.4449 l -3.29838,-20.889808 h -2.74866 V 76.414915 H 174.9218 V 26.939068 h 16.97132 c 2.92569,0 9.39821,3.307844 9.41582,9.620303 v 9.523445 c 0,2.994542 -1.39797,5.354707 -3.29784,6.968162 z m -7.15421,-16.807537 c -0.003,-0.282343 -0.11656,-0.552427 -0.3183,-0.750825 -0.20176,-0.198453 -0.47443,-0.309057 -0.7581,-0.307518 h -4.41378 v 12.643661 l 4.41378,1.67e-4 c 0.13909,5.42e-4 0.27708,-0.02624 0.40571,-0.07898 0.12865,-0.05265 0.24574,-0.130126 0.34414,-0.227985 0.0983,-0.09785 0.17593,-0.214061 0.22922,-0.34204 0.0534,-0.127971 0.0802,-0.265136 0.0797,-0.40361 l 0.0248,-10.532912 z m -37.92435,40.171474 h -10.44489 l 5.49732,-49.475847 h 18.69086 l 5.49734,49.475847 h -10.40314 l -1.4161,-11.544369 h -6.04705 z m 6.32192,-20.889808 -1.92405,-19.515577 -1.92408,19.515577 z"
     fill="#ffffff"
     id="path160"
     style="stroke-width:0.549732" />
  <path
     id="path138"
     d="M 169.96613,0.00913947 V 8.5437345 l 3.39791,2.4707495 V 3.4070486 h 1.39914 V 0.00913947 Z m 6.19619,0 V 3.4070486 h 0.99939 v 1.399141 h -2.39853 v 8.4986864 l 2.39853,1.705198 v 2.02844 l -3.79767,-2.766265 v -1.746973 l -3.39791,-2.484415 v 5.928389 l 8.7946,6.426132 8.79459,-6.426132 v -5.926436 l -3.39791,2.484805 v 1.746583 l -3.79767,2.762366 v -2.026494 l 2.39853,-1.705198 V 4.8061896 h -2.39853 v -1.399141 h 0.99939 V 0.00913947 Z m 6.59595,0 V 3.4070486 h 1.39914 v 7.4594794 l 3.39791,-2.4246845 V 0.00913947 Z m -3.99559,6.24811083 0.81551,2.0667009 2.18225,0.1475655 -1.6685,1.3936739 0.51765,2.1443874 -1.85082,-1.171155 -1.84691,1.171155 0.51961,-2.1463399 -1.6728,-1.3991425 2.19043,-0.1479503 z"
     style="fill:#ffffff;fill-opacity:1;stroke-width:0.199878" />
</svg>
